<svg width="100" height="100" viewBox="0 0 100 100" fill="none" xmlns="http://www.w3.org/2000/svg">
<path d="M39.5516 94.7002C21.4143 94.7002 16.5534 85.0315 15.6648 76.9199C15.247 73.0919 14.7002 30.4146 14.7002 29.9817C14.7002 27.8702 15.2395 24.3005 18.8472 24.3005C22.2346 24.3005 23.7536 27.1639 23.7536 29.9969L24.103 47.648C24.1182 48.2708 24.6195 48.9013 25.2423 48.9013C25.8651 48.9013 26.3664 48.2633 26.3816 47.6405L26.8297 18.5965C26.8297 15.7407 28.3487 12.8469 31.7362 12.8469C35.1236 12.8469 36.6427 15.6875 36.6427 18.5281L37.0072 47.329C37.0148 47.9519 37.5237 48.4455 38.1465 48.4455C38.7693 48.4455 39.2782 47.9443 39.2858 47.3215L39.7187 11.8444C39.7187 8.99619 41.2377 6.13281 44.6252 6.13281C48.0126 6.13281 49.5317 8.99619 49.5317 11.8292L49.9798 47.1164C49.9874 47.7392 50.4963 48.2405 51.1191 48.2405C51.7419 48.2405 52.2507 47.7392 52.2583 47.1164L52.6153 20.7991C52.6153 17.9509 54.1343 15.0875 57.5218 15.0875C60.9092 15.0875 62.4283 17.9509 62.4283 20.7839C62.5118 30.2171 62.7169 54.8483 62.6865 55.7293C62.6258 56.4281 62.884 56.8838 63.1118 57.1344C63.4157 57.4686 63.8562 57.6585 64.3499 57.6585C65.4436 57.6585 66.5297 56.7926 66.8335 56.5268C68.1854 55.3571 69.3475 53.5267 70.5779 51.5899C72.1121 49.1747 73.7071 46.6683 75.4084 45.9771C76.7452 45.4379 78.363 45.134 79.9731 45.134C82.5555 45.134 84.1733 45.8936 84.4467 46.6379C85.6315 49.9038 84.2037 51.157 80.5808 53.9293L79.882 54.4685C76.2895 57.2408 73.9578 62.884 71.8919 67.8588C71.0488 69.8867 70.2589 71.8083 69.4386 73.4185C68.9449 74.3907 68.5196 75.5375 68.0259 76.8591C65.398 83.9682 61.4029 94.7002 39.5516 94.7002Z" fill="url(#paint0_radial_1616_332)"/>
<path d="M44.6334 7.27855C46.3727 7.27855 48.4006 8.471 48.4006 11.866L48.8487 47.2748C48.8639 48.5204 49.8817 49.6596 51.1273 49.6596C52.3729 49.6596 53.3906 48.5204 53.4058 47.2748L53.7628 20.8587C53.7628 18.7549 54.7502 16.2712 57.53 16.2712C60.3098 16.2712 61.2972 18.7093 61.2972 20.8283C61.4111 34.1959 61.5782 54.3686 61.5554 55.675C61.4795 56.7839 61.9048 57.4979 62.277 57.9156C62.801 58.4928 63.5454 58.8042 64.3581 58.8042C65.8011 58.8042 67.0999 57.8169 67.586 57.3915C69.0595 56.1155 70.2671 54.2167 71.5431 52.204C72.9178 50.0394 74.4748 47.5937 75.842 47.0393C77.0268 46.5608 78.5383 46.2798 79.9813 46.2798C82.0928 46.2798 83.2017 46.8418 83.3992 47.0697C84.2498 49.4394 83.5814 50.2141 79.8978 53.0243L79.199 53.5636C75.3635 56.5181 72.971 62.3132 70.8519 67.4248C70.0241 69.4375 69.2342 71.3287 68.4367 72.9009C67.9126 73.9338 67.4493 75.1642 66.9708 76.463C65.6948 79.8884 64.1074 84.1569 60.3022 87.5292C55.7299 91.5926 48.9399 93.5598 39.5446 93.5598C29.9975 93.5598 18.3085 90.6508 16.7895 76.7896C16.4477 73.6604 15.9768 41.9277 15.8325 29.9881C15.8325 26.9652 16.9945 25.431 18.9921 25.431C20.7314 25.431 22.9112 26.6235 22.9112 29.9881V30.0337L23.1087 47.4722C23.1314 48.7102 23.9973 49.652 25.2353 49.652H25.2429C26.4885 49.652 27.4987 48.7026 27.5139 47.4646L27.962 18.4814C27.962 16.3776 28.9493 13.9395 31.7292 13.9395C34.509 13.9395 35.4964 16.4004 35.4964 18.5346L35.8382 47.3279C35.8686 48.5811 36.5901 49.5837 38.1091 49.5837C39.6282 49.5837 40.3953 48.5811 40.4105 47.3355L40.8586 11.8357C40.8586 8.471 42.8941 7.27855 44.6334 7.27855ZM44.6334 5C40.8738 5 38.5876 8.06086 38.5876 11.8357L38.1547 47.3051L37.7901 18.5118C37.7901 14.737 35.504 11.6762 31.7444 11.6762C27.9848 11.6762 25.6986 14.737 25.6986 18.5118L25.2505 47.4874L24.8935 29.9957C24.8935 26.2209 22.5998 23.1601 18.8478 23.1601C15.0882 23.1601 13.5615 26.2209 13.5615 29.9957C13.5615 29.9957 14.1084 73.1211 14.5337 77.0403C15.2401 83.4962 18.8933 95.8383 39.5522 95.8383C66.2113 95.8383 67.3809 79.9948 70.4722 73.9338C73.3507 68.2906 75.8572 59.0169 80.5965 55.3636C84.3638 52.4547 87.1436 50.7154 85.5334 46.2494C84.9942 44.7607 82.6396 43.9936 79.9889 43.9936C78.318 43.9936 76.5255 44.2974 74.9989 44.9202C71.5051 46.3405 69.0443 53.1154 66.1125 55.6598C65.5657 56.1307 64.8517 56.5181 64.3733 56.5181C64.0239 56.5181 63.796 56.313 63.8416 55.7965C63.8872 55.2725 63.5834 20.7904 63.5834 20.7904C63.5834 17.0156 61.2972 13.9547 57.5376 13.9547C53.778 13.9547 51.4918 17.0156 51.4918 20.7904L51.1349 47.1077L50.6792 11.8357C50.6792 8.05326 48.393 5 44.6334 5Z" fill="#EDA600"/>
<mask id="mask0_1616_332" style="mask-type:luminance" maskUnits="userSpaceOnUse" x="13" y="43" width="71" height="53">
<path d="M82.8603 45.7163C81.1362 43.7948 76.7766 42.8909 72.5764 44.5467C69.0447 45.9366 65.0116 59.1218 65.0116 59.1218L62.0723 54.2609C62.0723 54.2609 12.3011 70.5905 13.0074 77.0464C13.7138 83.5023 18.8861 95.8445 39.545 95.8445C66.2041 95.8445 67.3737 80.001 70.465 73.94C73.3435 68.2968 76.9664 55.1723 81.4172 53.7748C84.3034 52.8786 84.3186 47.3341 82.8603 45.7163Z" fill="white"/>
</mask>
<g mask="url(#mask0_1616_332)">
<path d="M64.622 54.5879C56.3357 57.7475 51.452 65.5477 48.4519 75.7784C48.0418 77.1911 49.3405 77.6013 49.8418 76.2189C55.0521 61.8793 67.9715 57.1475 67.9715 57.1475L64.622 54.5879Z" fill="#EDA600"/>
</g>
<defs>
<radialGradient id="paint0_radial_1616_332" cx="0" cy="0" r="1" gradientUnits="userSpaceOnUse" gradientTransform="translate(44.3062 27.0758) scale(68.2366 68.2366)">
<stop offset="0.3533" stop-color="#FFCA28"/>
<stop offset="0.8723" stop-color="#FFB300"/>
</radialGradient>
</defs>
</svg>
