<svg width="100" height="100" viewBox="0 0 100 100" fill="none" xmlns="http://www.w3.org/2000/svg">
<path d="M49.5265 91.8179C27.2519 91.8179 11.6982 75.4483 11.6982 52.0141V29.6965C11.6982 27.8212 16.3293 25.8242 29.3204 25.8242C48.6962 25.8242 76.0027 30.2262 81.4855 33.3899C88.1851 37.2622 90.8477 50.7973 87.4192 63.5738C85.1502 72.0699 76.8974 91.8179 49.5265 91.8179Z" fill="url(#paint0_radial_1616_357)"/>
<path d="M29.3286 26.8993C48.5685 26.8993 75.5815 31.2153 80.9569 34.3218C83.82 35.9752 86.0818 39.9047 87.1554 45.094C88.315 50.677 88.043 57.1404 86.3896 63.296C84.9509 68.6714 81.7586 76.323 74.7655 82.2853C68.1662 87.8969 59.6772 90.7457 49.5276 90.7457C38.5764 90.7457 29.2642 86.8376 22.579 79.4437C16.2587 72.4507 12.7801 62.7091 12.7801 52.0155V29.6979C12.7801 29.1396 15.7219 26.8993 29.3286 26.8993ZM29.3286 24.752C18.6351 24.752 10.6328 26.0976 10.6328 29.6979V52.0155C10.6328 74.4977 25.2917 92.893 49.5276 92.893C93.4971 92.893 96.94 41.0786 82.0234 32.4608C76.1183 29.0466 48.4325 24.752 29.3286 24.752Z" fill="#EDA600"/>
<path d="M56.1757 48.0693C51.3371 48.0693 47.4004 44.1326 47.4004 39.294V16.8476C47.4004 12.009 51.3371 8.07227 56.1757 8.07227C61.0143 8.07227 64.951 12.009 64.951 16.8476V39.294C64.951 44.1326 61.0143 48.0693 56.1757 48.0693Z" fill="url(#paint1_radial_1616_357)"/>
<path d="M56.1771 9.1473C60.4216 9.1473 63.8787 12.6045 63.8787 16.849V39.2882C63.8787 43.5327 60.4216 46.9899 56.1771 46.9899C51.9326 46.9899 48.4754 43.5327 48.4754 39.2882V16.849C48.4754 12.6045 51.9326 9.1473 56.1771 9.1473ZM56.1771 7C50.7372 7 46.3281 11.4091 46.3281 16.849V39.2882C46.3281 44.7281 50.7372 49.1372 56.1771 49.1372C61.6169 49.1372 66.026 44.7281 66.026 39.2882V16.849C66.026 11.4091 61.6169 7 56.1771 7Z" fill="#EDA600"/>
<path d="M74.2202 50.098C74.0627 50.098 73.8981 50.0908 73.7334 50.0837C71.3929 49.9548 69.2384 48.9241 67.678 47.1777C66.1177 45.4312 65.3232 43.1837 65.452 40.8431L66.6688 18.4325C66.9193 13.78 70.7702 10.1367 75.4226 10.1367C75.5801 10.1367 75.7447 10.1439 75.9094 10.151C78.2499 10.2799 80.3972 11.3106 81.9648 13.057C83.5323 14.8035 84.3196 17.051 84.1908 19.3916L82.974 41.8022C82.7163 46.4547 78.8726 50.098 74.2202 50.098Z" fill="url(#paint2_radial_1616_357)"/>
<path d="M75.4163 11.2098C75.5595 11.2098 75.7026 11.217 75.8458 11.2241C77.9 11.3386 79.7897 12.2405 81.1639 13.7722C82.5382 15.304 83.2325 17.2795 83.118 19.3338L81.9012 41.7444C81.6793 45.8314 78.308 49.0309 74.221 49.0309C74.0778 49.0309 73.9347 49.0238 73.7915 49.0166C71.7373 48.9021 69.8477 48.0002 68.4734 46.4685C67.0991 44.9367 66.4048 42.9612 66.5193 40.907L67.7361 18.4963C67.958 14.4093 71.3365 11.2098 75.4163 11.2098ZM75.4163 9.0625C70.2199 9.0625 65.8752 13.1281 65.5888 18.3746L64.372 40.7853C64.0786 46.218 68.2372 50.8561 73.6699 51.1567C73.8488 51.1639 74.0349 51.1711 74.2138 51.1711C79.4103 51.1711 83.755 47.1055 84.0413 41.8589L85.2581 19.4483C85.5516 14.0156 81.393 9.37744 75.9603 9.07682C75.7814 9.06966 75.6024 9.0625 75.4163 9.0625Z" fill="#EDA600"/>
<path d="M38.6671 47.2248C33.8786 47.2248 29.9348 43.4742 29.6842 38.6857L28.7394 20.2261C28.6177 17.8283 29.4337 15.5235 31.0442 13.7341C32.6547 11.9518 34.8664 10.8997 37.2642 10.778C37.4217 10.7708 37.5791 10.7637 37.7295 10.7637C42.5179 10.7637 46.4618 14.5143 46.7123 19.3028L47.6571 37.7624C47.9077 42.7155 44.0855 46.96 39.1252 47.2105C38.982 47.2248 38.8246 47.2248 38.6671 47.2248Z" fill="url(#paint3_radial_1616_357)"/>
<path d="M37.7469 9.68945V11.8368C41.9627 11.8368 45.4414 15.1436 45.6561 19.3595L46.6009 37.8191C46.8228 42.1853 43.4515 45.9144 39.0925 46.1435C38.9565 46.1506 38.8134 46.1506 38.6774 46.1506C34.4615 46.1506 30.9829 42.8438 30.7681 38.6279L29.8233 20.1683C29.716 18.0568 30.4389 16.024 31.8561 14.4493C33.2733 12.8746 35.2202 11.9513 37.3389 11.8439C37.4749 11.8368 37.618 11.8368 37.754 11.8368L37.7469 9.68945ZM37.7469 9.68945C37.5751 9.68945 37.3961 9.69661 37.2243 9.70377C31.67 9.99008 27.3969 14.7213 27.676 20.2828L28.6208 38.7424C28.8928 44.125 33.3449 48.3051 38.6702 48.3051C38.842 48.3051 39.0209 48.2979 39.1927 48.2908C44.7471 48.0045 49.0202 43.2732 48.741 37.7117L47.7962 19.2521C47.5242 13.8695 43.0722 9.68945 37.7469 9.68945Z" fill="#EDA600"/>
<path d="M20.7897 49.3737C16.0584 49.3737 12.1432 45.6732 11.8784 40.942L11.0839 26.8628C10.8047 21.9455 14.584 17.7153 19.5013 17.4362C19.6731 17.429 19.8448 17.4219 20.0095 17.4219C24.7407 17.4219 28.6559 21.1224 28.9208 25.8536L29.7153 39.9327C29.8513 42.3162 29.0496 44.6067 27.4606 46.389C25.8716 48.1712 23.6814 49.2234 21.2979 49.3594C21.1332 49.3666 20.9614 49.3737 20.7897 49.3737Z" fill="url(#paint4_radial_1616_357)"/>
<path d="M20.0158 16.3574V18.5047C24.1744 18.5047 27.6172 21.7615 27.8534 25.9201L28.6479 39.9992C28.8913 44.3296 25.5701 48.0444 21.2398 48.2878C21.0894 48.2949 20.9391 48.3021 20.7888 48.3021C16.6302 48.3021 13.1874 45.0454 12.9512 40.8868L12.1567 26.8076C12.035 24.7104 12.7436 22.692 14.1393 21.1316C15.5351 19.5641 17.4605 18.6407 19.5577 18.519C19.708 18.5119 19.8583 18.5047 20.0086 18.5047L20.0158 16.3574ZM20.0158 16.3574C19.8297 16.3574 19.6364 16.3646 19.4432 16.3717C13.9246 16.6795 9.70159 21.4107 10.0165 26.9293L10.811 41.0013C11.1117 46.3266 15.5279 50.4422 20.796 50.4422C20.9821 50.4422 21.1753 50.4351 21.3686 50.4279C26.8872 50.113 31.1102 45.3889 30.7952 39.8704L30.0007 25.7912C29.693 20.4731 25.2838 16.3574 20.0158 16.3574Z" fill="#EDA600"/>
<path d="M79.144 55.9126C75.0642 54.9892 70.6479 54.7817 66.8758 56.8717C62.9963 59.0118 61.1783 63.0989 59.8255 67.1143C59.3817 68.4242 61.4574 68.9896 61.8941 67.6869C63.0751 64.194 64.5639 60.608 67.9566 58.7255C71.2133 56.9218 75.0713 57.1866 78.5714 57.9811C79.9171 58.2889 80.4897 56.2203 79.144 55.9126Z" fill="#EDA600"/>
<mask id="mask0_1616_357" style="mask-type:luminance" maskUnits="userSpaceOnUse" x="35" y="34" width="50" height="31">
<path d="M41.798 36.4611C35.2201 36.4611 34.1393 43.311 35.7068 47.2262C37.2743 51.1415 41.9555 53.8685 46.1212 53.4892C61.0521 52.1221 64.8027 54.341 66.7496 58.3779C69.4337 63.9537 72.1894 64.3259 75.4748 64.2114C81.4157 64.0038 84.4863 55.1999 84.6939 47.0043C84.9229 37.7495 64.2015 34.3066 64.2015 34.3066C64.2015 34.3066 44.9402 36.4611 41.798 36.4611Z" fill="white"/>
</mask>
<g mask="url(#mask0_1616_357)">
<path d="M78.1546 66.8225C75.356 66.7724 71.6555 63.1077 69.1503 57.9041C67.4468 54.361 64.4334 51.999 55.2644 51.999C53.0098 51.999 50.4545 52.135 47.4554 52.407C47.2264 52.4285 46.9973 52.4356 46.7683 52.4356C43.1393 52.4356 39.4245 50.0163 38.1361 46.8097C37.3488 44.8485 37.2844 41.7779 38.6873 39.7021C39.6679 38.2563 41.1924 37.519 43.2252 37.519C46.2601 37.519 63.46 35.6151 65.5572 35.3789C71.7843 36.8534 87.4739 42.0141 88.1324 48.8711C88.8339 56.1934 87.8891 61.3326 85.3338 64.1456C83.709 65.935 81.4472 66.8082 78.4266 66.8082L78.1546 66.8225Z" fill="url(#paint5_radial_1616_357)"/>
<path d="M65.4981 36.4826C73.708 38.4509 86.5417 43.4828 87.0642 48.9942C87.737 56.0015 86.8852 60.8616 84.5375 63.4455C83.1275 64.9987 81.1233 65.7574 78.4249 65.7574H78.1743C76.1416 65.7216 72.7202 62.8586 70.122 57.4474C67.8673 52.7591 63.7015 50.9339 55.2698 50.9339C52.9865 50.9339 50.3954 51.0699 47.3606 51.349C47.1673 51.3634 46.9669 51.3777 46.7665 51.3777C43.6028 51.3777 40.2459 49.2018 39.1364 46.4246C38.4708 44.7712 38.3992 42.0656 39.5802 40.3191C40.3604 39.1667 41.5557 38.6084 43.2306 38.6084C46.2511 38.6084 62.7281 36.7903 65.4981 36.4826ZM65.627 34.3066C65.627 34.3066 46.3728 36.4611 43.2306 36.4611C36.6527 36.4611 35.5719 43.311 37.1394 47.2262C38.6139 50.8981 42.8155 53.525 46.7665 53.525C47.0313 53.525 47.2962 53.5107 47.5538 53.4892C50.5529 53.2172 53.0939 53.0812 55.2698 53.0812C63.9234 53.0812 66.629 55.1498 68.1822 58.3779C70.8664 63.9537 74.846 67.8475 78.1314 67.9047H78.4249C89.3475 67.9047 89.9845 56.9392 89.2043 48.7938C88.3239 39.5675 65.627 34.3066 65.627 34.3066Z" fill="#EDA600"/>
</g>
<defs>
<radialGradient id="paint0_radial_1616_357" cx="0" cy="0" r="1" gradientUnits="userSpaceOnUse" gradientTransform="translate(51.3265 48.8601) rotate(134.267) scale(42.3871 42.7827)">
<stop offset="0.2489" stop-color="#FFB300"/>
<stop offset="0.6833" stop-color="#FFCA28"/>
<stop offset="1" stop-color="#FFB300"/>
</radialGradient>
<radialGradient id="paint1_radial_1616_357" cx="0" cy="0" r="1" gradientUnits="userSpaceOnUse" gradientTransform="translate(56.1782 13.951) rotate(89.7242) scale(32.1924 10.2991)">
<stop offset="0.5993" stop-color="#FFCA28"/>
<stop offset="1" stop-color="#FFB300"/>
</radialGradient>
<radialGradient id="paint2_radial_1616_357" cx="0" cy="0" r="1" gradientUnits="userSpaceOnUse" gradientTransform="translate(75.1688 16.9783) rotate(94.4802) scale(28.6641 8.634)">
<stop offset="0.5993" stop-color="#FFCA28"/>
<stop offset="1" stop-color="#FFB300"/>
</radialGradient>
<radialGradient id="paint3_radial_1616_357" cx="0" cy="0" r="1" gradientUnits="userSpaceOnUse" gradientTransform="translate(37.3436 20.0941) rotate(86.4781) scale(24.1305 9.151)">
<stop offset="0.5993" stop-color="#FFCA28"/>
<stop offset="1" stop-color="#FFB300"/>
</radialGradient>
<radialGradient id="paint4_radial_1616_357" cx="0" cy="0" r="1" gradientUnits="userSpaceOnUse" gradientTransform="translate(19.3069 17.8411) rotate(86.871) scale(31.2367 11.3653)">
<stop offset="0.5993" stop-color="#FFCA28"/>
<stop offset="1" stop-color="#FFB300"/>
</radialGradient>
<radialGradient id="paint5_radial_1616_357" cx="0" cy="0" r="1" gradientUnits="userSpaceOnUse" gradientTransform="translate(47.513 44.4085) scale(107.452 117.379)">
<stop stop-color="#FFCA28"/>
<stop offset="1" stop-color="#FFB300"/>
</radialGradient>
</defs>
</svg>
