<svg width="100" height="100" viewBox="0 0 100 100" fill="none" xmlns="http://www.w3.org/2000/svg">
<path d="M47.8761 96.2867C28.8754 96.2867 19.6377 86.2021 19.6377 65.4605V47.9889C19.6377 47.3929 19.6769 47.0087 19.724 46.7734C20.2729 47.1185 21.2531 47.9968 22.0059 48.6712C24.6016 50.9923 28.1539 54.1761 32.2552 54.1761H32.3414C32.4826 54.1683 46.841 53.0939 58.541 53.0939C70.4605 53.0939 72.5386 54.1996 72.8915 54.5368C76.3497 57.8382 78.3024 60.0496 78.3024 66.9975C78.3024 81.152 70.3115 96.2867 47.8761 96.2867Z" fill="url(#paint0_radial_1616_331)"/>
<path d="M20.8135 49.1859C20.9546 49.3113 21.0879 49.429 21.2134 49.5466C23.9502 52.0011 27.6908 55.3574 32.2469 55.3574C32.3096 55.3574 32.3645 55.3574 32.4272 55.3495C32.5684 55.3417 46.8797 54.2674 58.5405 54.2674C69.5975 54.2674 71.8167 55.2476 72.1304 55.4279C75.4161 58.5725 77.1256 60.5408 77.1256 66.9868C77.1256 74.5698 74.7731 81.4314 70.4993 86.3012C65.3707 92.1434 57.7641 95.1076 47.8756 95.1076C37.8694 95.1076 30.8589 92.3316 26.4361 86.6227C22.7034 81.8 20.8135 74.6875 20.8135 65.4655V49.1859ZM19.4176 45.4453C18.7981 45.4453 18.4609 46.1511 18.4609 47.9861V65.4576C18.4609 83.0547 24.9618 97.4601 47.8756 97.4601C70.7894 97.4601 79.4781 82.0039 79.4781 66.9868C79.4781 59.7723 77.3922 57.208 73.7066 53.6792C72.295 52.3304 65.904 51.9148 58.5405 51.9148C46.6523 51.9148 32.2469 53.0048 32.2469 53.0048C26.4361 52.997 21.4408 45.4453 19.4176 45.4453Z" fill="#EDA600"/>
<path d="M68.0356 61.8465C67.2514 61.8465 67.2671 61.823 66.9299 61.7681C64.3813 61.376 62.2484 59.5096 61.5661 57.0159C61.4407 56.5533 61.025 56.2161 60.5545 56.1612C60.5075 56.1533 60.4447 56.1533 60.3898 56.1533C59.9742 56.1533 59.5743 56.3729 59.3626 56.7415C58.4451 58.3412 56.9551 59.4469 55.175 59.8625C54.6888 59.9723 54.187 60.035 53.6929 60.035C50.6425 60.035 48.0233 57.9569 47.3332 54.9771L37.4133 12.1921C36.5978 8.67894 38.7935 5.1658 42.2988 4.35025C42.785 4.24047 43.2868 4.17773 43.7809 4.17773C46.8313 4.17773 49.4505 6.25582 50.1406 9.23571L59.8331 47.6685C59.9664 48.1939 60.4447 48.6644 60.978 48.6644H61.0329C61.5896 48.6644 62.0523 48.1233 62.1464 47.5665L67.8317 12.3489C68.3179 9.18082 71.0939 6.77338 74.2856 6.77338C74.6149 6.77338 74.9599 6.78906 75.2893 6.83611C78.8495 7.38504 81.304 10.7178 80.7551 14.278L74.3953 56.3023C73.8935 59.4626 71.1724 61.8465 68.0356 61.8465Z" fill="url(#paint1_radial_1616_331)"/>
<path d="M43.7909 5.35255C46.2924 5.35255 48.4332 7.06206 49.0057 9.50087C49.0057 9.51655 49.0135 9.53224 49.0135 9.54792L58.6982 47.8474C58.9648 48.8982 59.9058 49.6196 60.9801 49.6196H61.0821C62.1956 49.5726 63.121 48.7492 63.3013 47.6435L68.9945 12.4572C69.3944 9.86944 71.6685 7.90898 74.2799 7.90898C74.5543 7.90898 74.8288 7.93251 75.1033 7.97171C78.0204 8.4187 80.0358 11.1633 79.5809 14.0805L73.1193 56.1048C72.7193 58.6926 70.4452 60.6531 67.8339 60.6531C67.5594 60.6531 67.285 60.6295 67.0105 60.5903C64.9167 60.2688 63.2072 58.7397 62.6583 56.693C62.4073 55.7755 61.631 55.0932 60.69 54.9756C60.588 54.9599 60.4861 54.9599 60.392 54.9599C59.5608 54.9599 58.7766 55.4069 58.3531 56.144C57.6003 57.4536 56.3848 58.3633 54.9262 58.7005C54.5263 58.7946 54.1185 58.8416 53.7108 58.8416C51.2092 58.8416 49.0684 57.1321 48.496 54.6933L38.5604 11.924C37.8938 9.04604 39.6896 6.16025 42.5675 5.4937C42.9753 5.3996 43.3831 5.35255 43.7909 5.35255ZM43.7909 3C43.2106 3 42.6303 3.06273 42.0421 3.20389C37.8938 4.16843 35.3139 8.30891 36.2706 12.4572L46.1905 55.2344C47.0138 58.7946 50.1898 61.202 53.6951 61.202C54.2754 61.202 54.8557 61.1393 55.4438 60.9981C57.616 60.4962 59.3569 59.1161 60.3842 57.3203C61.1605 60.1747 63.5444 62.4489 66.6498 62.9272C67.0497 62.9899 67.4418 63.0213 67.8339 63.0213C71.5744 63.0213 74.8602 60.2924 75.4483 56.4812L81.91 14.4569C82.5608 10.2458 79.6672 6.30925 75.464 5.66622C75.064 5.60348 74.672 5.57212 74.2799 5.57212C70.5393 5.57212 67.2536 8.30107 66.6655 12.1122L60.9801 47.2749L51.2955 8.97547C50.4643 5.40744 47.2962 3 43.7909 3Z" fill="#EDA600"/>
<path d="M40.3634 62.1199C36.866 62.1199 34.0037 59.4929 33.69 56.0111L32.5373 43.1192C32.3805 41.3312 32.9215 39.5903 34.0743 38.218C35.227 36.8457 36.8425 35.9988 38.6226 35.8341C38.8264 35.8184 39.0303 35.8027 39.2342 35.8027C42.7238 35.8027 45.5939 38.4297 45.9076 41.9115L47.0604 54.8035C47.2172 56.5914 46.6761 58.3323 45.5234 59.7046C44.3706 61.0769 42.7552 61.9238 40.9751 62.0885C40.7634 62.112 40.5595 62.1199 40.3634 62.1199Z" fill="url(#paint2_radial_1616_331)"/>
<path d="M39.2259 36.9795C42.0568 36.9795 44.4721 39.1909 44.7309 42.0218L45.8837 54.9137C46.017 56.388 45.57 57.8231 44.6211 58.9523C43.6723 60.0894 42.3391 60.7873 40.8649 60.9127C40.7002 60.9284 40.5277 60.9363 40.363 60.9363C37.4851 60.9363 35.1168 58.7719 34.858 55.894L33.7053 43.002C33.572 41.5278 34.019 40.0927 34.9678 38.9635C35.9167 37.8264 37.2498 37.1285 38.7241 37.003C38.8887 36.9873 39.0534 36.9795 39.2259 36.9795ZM39.2181 34.627C38.9828 34.627 38.7476 34.6348 38.5045 34.6583C34.168 35.0504 30.9607 38.8772 31.3528 43.2137L32.5133 56.1135C32.8819 60.2148 36.3245 63.2967 40.363 63.2967C40.5983 63.2967 40.8335 63.2888 41.0766 63.2653C45.4131 62.8732 48.6204 59.0464 48.2284 54.7099L47.0756 41.8179C46.6992 37.7088 43.2566 34.627 39.2181 34.627Z" fill="#EDA600"/>
<path d="M27.6426 64.2832C24.5137 64.2832 21.7769 62.0561 21.1339 58.9978L19.3224 50.3874C18.9538 48.6466 19.291 46.8665 20.2634 45.3765C21.2358 43.8866 22.7257 42.8671 24.4666 42.4986C24.9215 42.4045 25.3841 42.3574 25.8468 42.3574C28.9757 42.3574 31.7125 44.5845 32.3555 47.6428L34.167 56.2531C34.5355 57.994 34.1983 59.7741 33.2259 61.2641C32.2536 62.754 30.7636 63.7734 29.0227 64.142C28.5679 64.2361 28.0974 64.2832 27.6426 64.2832Z" fill="url(#paint3_radial_1616_331)"/>
<path d="M25.8475 43.5342C28.4196 43.5342 30.6702 45.3692 31.2035 47.8864L33.0149 56.4967C33.6344 59.4531 31.7367 62.3702 28.7803 62.9897C28.4039 63.0682 28.0197 63.1074 27.6433 63.1074C25.0712 63.1074 22.8206 61.2724 22.2873 58.7552L20.4759 50.1448C19.8564 47.1885 21.7541 44.2713 24.7104 43.6518C25.0868 43.5734 25.4633 43.5342 25.8475 43.5342ZM25.8475 41.1816C25.3143 41.1816 24.7732 41.2365 24.2242 41.3542C19.9897 42.2481 17.2764 46.3965 18.1704 50.631L19.9818 59.2414C20.7582 62.9349 24.0125 65.4599 27.6433 65.4599C28.1765 65.4599 28.7176 65.405 29.2665 65.2874C33.5011 64.3934 36.2144 60.2451 35.3204 56.0105L33.509 47.4002C32.7248 43.7145 29.4704 41.1816 25.8475 41.1816Z" fill="#EDA600"/>
<path d="M68.7336 70.5413C65.8243 69.6865 62.6248 69.3807 59.8174 70.7451C56.9159 72.1567 55.4495 74.9954 54.2811 77.8498C53.7086 79.2535 55.9828 79.8573 56.5474 78.4772C57.5119 76.1246 58.7431 73.7329 61.2211 72.7134C63.456 71.7881 65.8556 72.1488 68.1062 72.8154C69.5648 73.2388 70.1843 70.9726 68.7336 70.5413Z" fill="#EDA600"/>
<mask id="mask0_1616_331" style="mask-type:luminance" maskUnits="userSpaceOnUse" x="36" y="53" width="41" height="26">
<path d="M42.8098 55.1905C37.1166 55.1905 36.1756 61.119 37.5401 64.5066C38.8967 67.8943 42.9431 70.2547 46.5503 69.9253C59.4736 68.7412 62.7202 70.6625 64.4061 74.1599C66.7273 78.9905 69.4955 78.9199 72.3421 78.9199C77.4471 78.9199 76.6864 71.4231 76.859 64.3263C77.0628 56.3119 62.1948 53.332 62.1948 53.332C62.1948 53.332 45.5309 55.1905 42.8098 55.1905Z" fill="white"/>
</mask>
<g mask="url(#mask0_1616_331)">
<path d="M73.0391 81.2269C70.7101 81.1876 67.5969 78.0744 65.4639 73.6517C63.6446 69.8719 60.2177 68.3976 53.2228 68.3976C51.2623 68.3976 49.0509 68.5153 46.4396 68.7505C46.2514 68.7662 46.0554 68.774 45.8672 68.774C42.8716 68.774 39.6878 66.7038 38.6292 64.0611C37.9704 62.4222 37.9156 59.8657 39.084 58.1405C39.8839 56.9643 41.1385 56.3604 42.8089 56.3604C45.428 56.3604 60.1236 54.7372 62.1233 54.5098C67.4949 55.788 80.8731 60.1872 81.4298 65.9588C82.0258 72.2244 81.2338 76.608 79.0694 78.9919C77.7128 80.4897 75.8151 81.2112 73.2743 81.2112L73.0391 81.2269Z" fill="url(#paint4_radial_1616_331)"/>
<path d="M62.0458 55.712C63.2612 56.0179 67.2135 57.0687 71.1893 58.7625C76.7335 61.1307 80.0427 63.797 80.2623 66.0789C80.8269 71.9995 80.1368 76.0773 78.1999 78.2102C77.0785 79.4492 75.4631 80.0452 73.2752 80.0452H73.0635C71.4716 80.0138 68.5937 77.426 66.5313 73.1366C64.5081 68.9334 60.6578 67.2238 53.2315 67.2238C51.2397 67.2238 48.9813 67.3415 46.3386 67.5846C46.1896 67.6002 46.0328 67.6081 45.8681 67.6081C43.3195 67.6081 40.6141 65.8594 39.7201 63.6323C39.1947 62.3149 39.132 60.1819 40.0573 58.8096C40.6297 57.9626 41.5316 57.547 42.8098 57.547C45.4289 57.547 59.0659 56.0492 62.0458 55.712ZM62.1948 53.3281C62.1948 53.3281 45.5309 55.1945 42.8098 55.1945C37.1166 55.1945 36.1756 61.1229 37.5401 64.5106C38.8183 67.6865 42.449 69.9606 45.8681 69.9606C46.0955 69.9606 46.3229 69.9528 46.5503 69.9293C49.146 69.694 51.3495 69.5764 53.2237 69.5764C60.7126 69.5764 63.0573 71.3643 64.3983 74.1638C66.7195 78.9944 70.1699 82.3585 73.0086 82.4056H73.2596C82.709 82.4056 83.2657 72.917 82.5913 65.8594C81.8385 57.8842 62.1948 53.3281 62.1948 53.3281Z" fill="#EDA600"/>
</g>
<defs>
<radialGradient id="paint0_radial_1616_331" cx="0" cy="0" r="1" gradientUnits="userSpaceOnUse" gradientTransform="translate(47.0308 63.964) rotate(14.0032) scale(27.0045 37.6427)">
<stop offset="0.2489" stop-color="#FFB300"/>
<stop offset="0.6833" stop-color="#FFCA28"/>
<stop offset="1" stop-color="#FFB300"/>
</radialGradient>
<radialGradient id="paint1_radial_1616_331" cx="0" cy="0" r="1" gradientUnits="userSpaceOnUse" gradientTransform="translate(59.3425 15.7672) rotate(90) scale(56.0565 58.9658)">
<stop stop-color="#FFCA28"/>
<stop offset="1" stop-color="#FFB300"/>
</radialGradient>
<radialGradient id="paint2_radial_1616_331" cx="0" cy="0" r="1" gradientUnits="userSpaceOnUse" gradientTransform="translate(38.8436 40.6223) rotate(84.0018) scale(16.7933 11.1931)">
<stop offset="0.5993" stop-color="#FFCA28"/>
<stop offset="1" stop-color="#FFB300"/>
</radialGradient>
<radialGradient id="paint3_radial_1616_331" cx="0" cy="0" r="1" gradientUnits="userSpaceOnUse" gradientTransform="translate(25.3094 47.2166) rotate(78.2285) scale(13.6376 9.64895)">
<stop offset="0.5993" stop-color="#FFCA28"/>
<stop offset="1" stop-color="#FFB300"/>
</radialGradient>
<radialGradient id="paint4_radial_1616_331" cx="0" cy="0" r="1" gradientUnits="userSpaceOnUse" gradientTransform="translate(51.453 63.5455) scale(27.6149 30.166)">
<stop stop-color="#FFCA28"/>
<stop offset="1" stop-color="#FFB300"/>
</radialGradient>
</defs>
</svg>
